<?xml version="1.0" encoding="UTF-8" standalone="no"?>
<!-- Created with Inkscape (http://www.inkscape.org/) -->

<svg
   xmlns:dc="http://purl.org/dc/elements/1.1/"
   xmlns:cc="http://creativecommons.org/ns#"
   xmlns:rdf="http://www.w3.org/1999/02/22-rdf-syntax-ns#"
   xmlns:svg="http://www.w3.org/2000/svg"
   xmlns="http://www.w3.org/2000/svg"
   xmlns:sodipodi="http://sodipodi.sourceforge.net/DTD/sodipodi-0.dtd"
   xmlns:inkscape="http://www.inkscape.org/namespaces/inkscape"
   width="25px"
   height="25px"
   viewBox="0 0 25 25"
   version="1.1"
   id="SVGRoot"
   inkscape:version="0.92.1 r15371"
   sodipodi:docname="Epicentro.svg">
  <sodipodi:namedview
     id="base"
     pagecolor="#ffffff"
     bordercolor="#666666"
     borderopacity="1.0"
     inkscape:pageopacity="0.0"
     inkscape:pageshadow="2"
     inkscape:zoom="10.24"
     inkscape:cx="12.5"
     inkscape:cy="12.5"
     inkscape:document-units="px"
     inkscape:current-layer="layer1"
     showgrid="true"
     inkscape:window-width="1366"
     inkscape:window-height="705"
     inkscape:window-x="-8"
     inkscape:window-y="-8"
     inkscape:window-maximized="1"
     inkscape:grid-bbox="true">
    <inkscape:grid
       type="xygrid"
       id="grid6907" />
  </sodipodi:namedview>
  <defs
     id="defs6348" />
  <metadata
     id="metadata6351">
    <rdf:RDF>
      <cc:Work
         rdf:about="">
        <dc:format>image/svg+xml</dc:format>
        <dc:type
           rdf:resource="http://purl.org/dc/dcmitype/StillImage" />
        <dc:title></dc:title>
      </cc:Work>
    </rdf:RDF>
  </metadata>
  <g
     id="layer1"
     inkscape:groupmode="layer"
     inkscape:label="Capa 1">
    <path
       style="opacity:0.5;fill:none;fill-opacity:0.23555555;fill-rule:nonzero;stroke:#ab0000;stroke-width:0.37795276;stroke-linecap:round;stroke-linejoin:round;stroke-miterlimit:4;stroke-dasharray:none;stroke-opacity:1;paint-order:markers stroke fill"
       id="path7050"
       sodipodi:type="arc"
       sodipodi:cx="12.5"
       sodipodi:cy="12.5"
       sodipodi:rx="8.5"
       sodipodi:ry="8.5"
       sodipodi:start="0"
       sodipodi:end="6.2715614"
       sodipodi:open="true"
       d="m 21,12.5 a 8.5,8.5 0 0 1 -8.475299,8.499964 8.5,8.5 0 0 1 -8.5245574,-8.450563 8.5,8.5 0 0 1 8.4257554,-8.549078 8.5,8.5 0 0 1 8.573527,8.400876" />
    <path
       style="opacity:0.5;fill:none;fill-opacity:0.23555555;fill-rule:nonzero;stroke:#ab0000;stroke-width:0.37795276;stroke-linecap:round;stroke-linejoin:round;stroke-miterlimit:4;stroke-dasharray:none;stroke-opacity:1;paint-order:markers stroke fill"
       id="path7052"
       sodipodi:type="arc"
       sodipodi:cx="12.5"
       sodipodi:cy="12.5"
       sodipodi:rx="4.5"
       sodipodi:ry="4.5"
       sodipodi:start="0"
       sodipodi:end="6.2715614"
       sodipodi:open="true"
       d="m 17,12.5 a 4.5,4.5 0 0 1 -4.486923,4.499981 4.5,4.5 0 0 1 -4.513001,-4.473827 4.5,4.5 0 0 1 4.460694,-4.525983 4.5,4.5 0 0 1 4.538926,4.447523" />
    <path
       style="opacity:0.5;fill:none;fill-opacity:0.23555555;fill-rule:nonzero;stroke:#ab0000;stroke-width:0.37795276;stroke-linecap:round;stroke-linejoin:round;stroke-miterlimit:4;stroke-dasharray:none;stroke-opacity:1;paint-order:markers stroke fill"
       id="path7054"
       sodipodi:type="arc"
       sodipodi:cx="12.5"
       sodipodi:cy="12.5"
       sodipodi:rx="11.5"
       sodipodi:ry="11.5"
       sodipodi:start="0"
       sodipodi:end="6.2715614"
       sodipodi:open="true"
       d="M 24,12.5 A 11.5,11.5 0 0 1 12.533419,23.999951 11.5,11.5 0 0 1 1.0001942,12.566837 11.5,11.5 0 0 1 12.399745,1.000437 11.5,11.5 0 0 1 23.999223,12.366328" />
  </g>
</svg>
