<?xml version="1.0" encoding="UTF-8" standalone="no"?>
<!-- Created with Inkscape (http://www.inkscape.org/) -->

<svg
   xmlns:dc="http://purl.org/dc/elements/1.1/"
   xmlns:cc="http://creativecommons.org/ns#"
   xmlns:rdf="http://www.w3.org/1999/02/22-rdf-syntax-ns#"
   xmlns:svg="http://www.w3.org/2000/svg"
   xmlns="http://www.w3.org/2000/svg"
   xmlns:sodipodi="http://sodipodi.sourceforge.net/DTD/sodipodi-0.dtd"
   xmlns:inkscape="http://www.inkscape.org/namespaces/inkscape"
   width="25px"
   height="25px"
   viewBox="0 0 25 25"
   version="1.1"
   id="SVGRoot"
   inkscape:version="0.92.1 r15371"
   sodipodi:docname="EventoLigero.svg">
  <sodipodi:namedview
     id="base"
     pagecolor="#ffffff"
     bordercolor="#666666"
     borderopacity="1.0"
     inkscape:pageopacity="0.0"
     inkscape:pageshadow="2"
     inkscape:zoom="10"
     inkscape:cx="-26.438281"
     inkscape:cy="12.5"
     inkscape:document-units="px"
     inkscape:current-layer="layer1"
     showgrid="true"
     inkscape:window-width="1920"
     inkscape:window-height="1017"
     inkscape:window-x="1358"
     inkscape:window-y="-8"
     inkscape:window-maximized="1"
     inkscape:grid-bbox="true">
    <inkscape:grid
       type="xygrid"
       id="grid6192" />
  </sodipodi:namedview>
  <defs
     id="defs5633" />
  <metadata
     id="metadata5636">
    <rdf:RDF>
      <cc:Work
         rdf:about="">
        <dc:format>image/svg+xml</dc:format>
        <dc:type
           rdf:resource="http://purl.org/dc/dcmitype/StillImage" />
        <dc:title />
      </cc:Work>
    </rdf:RDF>
  </metadata>
  <g
     id="layer1"
     inkscape:groupmode="layer"
     inkscape:label="Capa 1">
    <g
       id="g4533"
       transform="matrix(0.9025,0,0,0.9025,1.2188347,1.2014001)">
      <path
         inkscape:connector-curvature="0"
         id="path4486"
         d="m 12.446723,6.072159 a 6.25,6.25 0 0 0 -6.1953121,6.286133 6.25,6.25 0 0 0 6.2675781,6.213867 6.25,6.25 0 0 0 6.231445,-6.25 v -0.07227 a 6.25,6.25 0 0 0 -6.303711,-6.17773 z m 0.0059,0.75 a 5.5,5.5 0 0 1 5.547851,5.436523 v 0.06348 a 5.5,5.5 0 0 1 -5.483398,5.5 5.5,5.5 0 0 1 -5.5156251,-5.467773 5.5,5.5 0 0 1 5.4511721,-5.532227 z"
         style="opacity:0.75;fill:#00ff00;fill-opacity:1;fill-rule:nonzero;stroke:#008000;stroke-width:1;stroke-linecap:round;stroke-linejoin:round;stroke-miterlimit:4;stroke-dasharray:none;stroke-opacity:1;paint-order:markers stroke fill" />
      <path
         inkscape:connector-curvature="0"
         id="path4486-0"
         d="m 12.464862,8.1658733 a 4.15625,4.15625 0 0 0 -4.1198826,4.1802787 4.15625,4.15625 0 0 0 4.1679396,4.132221 4.15625,4.15625 0 0 0 4.14391,-4.15625 v -0.04806 A 4.15625,4.15625 0 0 0 12.464862,8.1658733 Z m 0.0039,0.49875 a 3.6575,3.6575 0 0 1 3.68932,3.6152877 v 0.04222 a 3.6575,3.6575 0 0 1 -3.646459,3.6575 A 3.6575,3.6575 0 0 1 8.8437275,12.34356 3.6575,3.6575 0 0 1 12.468757,8.664629 Z"
         style="opacity:0.75;fill:#00ff00;fill-opacity:1;fill-rule:nonzero;stroke:#008000;stroke-width:0.71249998;stroke-linecap:round;stroke-linejoin:round;stroke-miterlimit:4;stroke-dasharray:none;stroke-opacity:1;paint-order:markers stroke fill" />
      <path
         inkscape:connector-curvature="0"
         id="path4486-0-7"
         d="m 12.47699,9.565848 a 2.75625,2.75625 0 0 0 -2.7321322,2.772184 2.75625,2.75625 0 0 0 2.7640022,2.740316 2.75625,2.75625 0 0 0 2.748066,-2.75625 v -0.03187 A 2.75625,2.75625 0 0 0 12.47699,9.5658507 Z m 0.0026,0.33075 a 2.4255,2.4255 0 0 1 2.446602,2.397506 v 0.028 a 2.4255,2.4255 0 0 1 -2.418178,2.4255 2.4255,2.4255 0 0 1 -2.43239,-2.411288 2.4255,2.4255 0 0 1 2.403966,-2.4397116 z"
         style="opacity:0.75;fill:#00ff00;fill-opacity:1;fill-rule:nonzero;stroke:#008000;stroke-width:0.44999999;stroke-linecap:round;stroke-linejoin:round;stroke-miterlimit:4;stroke-dasharray:none;stroke-opacity:1;paint-order:markers stroke fill" />
    </g>
  </g>
</svg>
