<?xml version="1.0" encoding="UTF-8" standalone="no"?>
<svg
   xmlns:dc="http://purl.org/dc/elements/1.1/"
   xmlns:cc="http://creativecommons.org/ns#"
   xmlns:rdf="http://www.w3.org/1999/02/22-rdf-syntax-ns#"
   xmlns:svg="http://www.w3.org/2000/svg"
   xmlns="http://www.w3.org/2000/svg"
   xmlns:sodipodi="http://sodipodi.sourceforge.net/DTD/sodipodi-0.dtd"
   xmlns:inkscape="http://www.inkscape.org/namespaces/inkscape"
   version="1.1"
   x="0px"
   y="0px"
   width="480px"
   height="480px"
   viewBox="0 0 480 480"
   xml:space="preserve"
   id="svg6205"
   sodipodi:docname="position-yellow.svg"
   inkscape:version="0.92.1 r15371"><metadata
     id="metadata6211"><rdf:RDF><cc:Work
         rdf:about=""><dc:format>image/svg+xml</dc:format><dc:type
           rdf:resource="http://purl.org/dc/dcmitype/StillImage" /><dc:title></dc:title></cc:Work></rdf:RDF></metadata><defs
     id="defs6209"><filter
       inkscape:collect="always"
       style="color-interpolation-filters:sRGB"
       id="filter7116"
       x="-0.01199985"
       width="1.0239997"
       y="-0.01200015"
       height="1.0240003"><feGaussianBlur
         inkscape:collect="always"
         stdDeviation="1.8000375"
         id="feGaussianBlur7118" /></filter></defs><sodipodi:namedview
     pagecolor="#ffffff"
     bordercolor="#666666"
     borderopacity="1"
     objecttolerance="10"
     gridtolerance="10"
     guidetolerance="10"
     inkscape:pageopacity="0"
     inkscape:pageshadow="2"
     inkscape:window-width="1366"
     inkscape:window-height="705"
     id="namedview6207"
     showgrid="false"
     inkscape:zoom="0.49166667"
     inkscape:cx="-13.220339"
     inkscape:cy="240"
     inkscape:window-x="-8"
     inkscape:window-y="-8"
     inkscape:window-maximized="1"
     inkscape:current-layer="svg6205" /><g
     id="position"
     style="stroke:#000000;fill:#ffff00;stroke-width:7;stroke-miterlimit:4;stroke-dasharray:none;filter:url(#filter7116)"><path
       d="M318.506,236.002c0,43.969-35.643,79.615-79.615,79.615c-43.969,0-79.623-35.646-79.623-79.615   c0-43.97,35.654-79.62,79.623-79.62C282.864,156.382,318.506,192.032,318.506,236.002z"
       id="path6200"
       style="stroke:#000000;fill:#ffff00;stroke-width:7;stroke-miterlimit:4;stroke-dasharray:none" /><path
       d="M411.977,222.156h-35.314c-6.502-65.412-58.518-117.424-123.926-123.921V62.921c0-3.806-3.123-6.92-6.92-6.92h-13.846   c-3.814,0-6.92,3.114-6.92,6.92v35.314c-65.426,6.497-117.428,58.509-123.922,123.921H65.811c-3.805,0-6.926,3.11-6.926,6.921   v13.845c0,3.814,3.121,6.921,6.926,6.921h35.318c6.494,65.416,58.496,117.423,123.922,123.925v35.311   c0,3.805,3.105,6.925,6.92,6.925h13.846c3.797,0,6.92-3.12,6.92-6.925v-35.311c65.408-6.502,117.424-58.509,123.926-123.925h35.314   c3.795,0,6.92-3.106,6.92-6.921v-13.845C418.897,225.267,415.772,222.156,411.977,222.156z M238.891,346.768   c-61.076,0-110.77-49.69-110.77-110.766c0-61.081,49.693-110.767,110.77-110.767c61.084,0,110.771,49.686,110.771,110.767   C349.663,297.077,299.975,346.768,238.891,346.768z"
       id="path6202"
       style="stroke:#000000;fill:#ffff00;stroke-width:7;stroke-miterlimit:4;stroke-dasharray:none" /></g></svg>