<?xml version="1.0" encoding="UTF-8" standalone="no"?>
<!-- Created with Inkscape (http://www.inkscape.org/) -->

<svg
   xmlns:dc="http://purl.org/dc/elements/1.1/"
   xmlns:cc="http://creativecommons.org/ns#"
   xmlns:rdf="http://www.w3.org/1999/02/22-rdf-syntax-ns#"
   xmlns:svg="http://www.w3.org/2000/svg"
   xmlns="http://www.w3.org/2000/svg"
   xmlns:sodipodi="http://sodipodi.sourceforge.net/DTD/sodipodi-0.dtd"
   xmlns:inkscape="http://www.inkscape.org/namespaces/inkscape"
   width="25px"
   height="25px"
   viewBox="0 0 25 25"
   version="1.1"
   id="SVGRoot"
   inkscape:version="0.92.1 r15371"
   sodipodi:docname="torre-leyenda.svg">
  <sodipodi:namedview
     id="base"
     pagecolor="#ffffff"
     bordercolor="#666666"
     borderopacity="1.0"
     inkscape:pageopacity="0.0"
     inkscape:pageshadow="2"
     inkscape:zoom="10.24"
     inkscape:cx="12.5"
     inkscape:cy="8.59375"
     inkscape:document-units="px"
     inkscape:current-layer="layer1"
     showgrid="true"
     inkscape:window-width="1366"
     inkscape:window-height="705"
     inkscape:window-x="-8"
     inkscape:window-y="-8"
     inkscape:window-maximized="1"
     inkscape:grid-bbox="true">
    <inkscape:grid
       type="xygrid"
       id="grid5044" />
  </sodipodi:namedview>
  <defs
     id="defs4485" />
  <metadata
     id="metadata4488">
    <rdf:RDF>
      <cc:Work
         rdf:about="">
        <dc:format>image/svg+xml</dc:format>
        <dc:type
           rdf:resource="http://purl.org/dc/dcmitype/StillImage" />
        <dc:title></dc:title>
      </cc:Work>
    </rdf:RDF>
  </metadata>
  <g
     id="layer1"
     inkscape:groupmode="layer"
     inkscape:label="Capa 1">
    <path
       style="fill:#00ff00;stroke:#000000;stroke-width:0.5px;stroke-linecap:butt;stroke-linejoin:miter;stroke-opacity:1"
       d="m 16.25,18.75 c -2.333334,-0.833334 -4.666667,-1.666666 -7,-2.5 1.833333,-1.666666 3.666666,-3.333333 5.5,-5 -1.166667,-1.6666666 -2.333334,-3.3333334 -3.5,-5 m -2.5,12.5 c 2.333333,-0.833334 4.666666,-1.666666 7,-2.5 -1.833334,-1.666666 -3.666667,-3.333333 -5.5,-5 1.166666,-1.6666666 2.333333,-3.3333334 3.5,-5 m -5,12.5 c 0.8333334,-4.166666 1.666667,-8.333333 2.5,-12.5 0.833333,0 1.666666,0 2.5,0 0.833333,4.166667 1.666666,8.333334 2.5,12.5 -2.5,0 -5,0 -7.5,0 z"
       id="path5075"
       inkscape:connector-curvature="0" />
  </g>
</svg>
